<svg width="243" height="242" viewBox="0 0 243 242" fill="none" xmlns="http://www.w3.org/2000/svg">
    <path d="M46.432 181.72H52.96C53.92 181.72 54.72 181.453 55.36 180.92C56 180.365 56.32 179.576 56.32 178.552C56.32 177.4 56.032 176.589 55.456 176.12C54.88 175.651 54.048 175.416 52.96 175.416H46.432V181.72ZM42.432 172.152H53.536C55.584 172.152 57.2267 172.621 58.464 173.56C59.7013 174.499 60.32 175.917 60.32 177.816C60.32 178.968 60.032 179.96 59.456 180.792C58.9013 181.603 58.1013 182.232 57.056 182.68V182.744C58.464 183.043 59.5307 183.715 60.256 184.76C60.9813 185.784 61.344 187.075 61.344 188.632C61.344 189.528 61.184 190.371 60.864 191.16C60.544 191.928 60.0427 192.6 59.36 193.176C58.6773 193.731 57.8027 194.179 56.736 194.52C55.6693 194.84 54.4 195 52.928 195H42.432V172.152ZM46.432 191.736H53.504C54.72 191.736 55.6587 191.427 56.32 190.808C57.0027 190.168 57.344 189.272 57.344 188.12C57.344 186.989 57.0027 186.125 56.32 185.528C55.6587 184.909 54.72 184.6 53.504 184.6H46.432V191.736ZM64.9633 172.152H74.4353C76.1846 172.152 77.6993 172.451 78.9792 173.048C80.2593 173.645 81.3046 174.467 82.1153 175.512C82.9259 176.536 83.5233 177.741 83.9073 179.128C84.3126 180.515 84.5153 181.997 84.5153 183.576C84.5153 185.155 84.3126 186.637 83.9073 188.024C83.5233 189.411 82.9259 190.627 82.1153 191.672C81.3046 192.696 80.2593 193.507 78.9792 194.104C77.6993 194.701 76.1846 195 74.4353 195H64.9633V172.152ZM68.9633 191.736H72.8993C74.4566 191.736 75.7259 191.533 76.7073 191.128C77.7099 190.701 78.4886 190.125 79.0433 189.4C79.6193 188.653 80.0033 187.789 80.1953 186.808C80.4086 185.805 80.5153 184.728 80.5153 183.576C80.5153 182.424 80.4086 181.357 80.1953 180.376C80.0033 179.373 79.6193 178.509 79.0433 177.784C78.4886 177.037 77.7099 176.461 76.7073 176.056C75.7259 175.629 74.4566 175.416 72.8993 175.416H68.9633V191.736ZM87.993 172.152H93.625L99.929 190.04H99.993L106.137 172.152H111.705V195H107.897V177.368H107.833L101.497 195H98.201L91.865 177.368H91.801V195H87.993V172.152ZM123.567 195.448C122.244 195.448 121.06 195.235 120.015 194.808C118.991 194.36 118.116 193.752 117.391 192.984C116.687 192.216 116.143 191.299 115.759 190.232C115.396 189.165 115.215 187.992 115.215 186.712C115.215 185.453 115.396 184.291 115.759 183.224C116.143 182.157 116.687 181.24 117.391 180.472C118.116 179.704 118.991 179.107 120.015 178.68C121.06 178.232 122.244 178.008 123.567 178.008C124.889 178.008 126.063 178.232 127.087 178.68C128.132 179.107 129.007 179.704 129.711 180.472C130.436 181.24 130.98 182.157 131.343 183.224C131.727 184.291 131.919 185.453 131.919 186.712C131.919 187.992 131.727 189.165 131.343 190.232C130.98 191.299 130.436 192.216 129.711 192.984C129.007 193.752 128.132 194.36 127.087 194.808C126.063 195.235 124.889 195.448 123.567 195.448ZM123.567 192.568C124.377 192.568 125.081 192.397 125.679 192.056C126.276 191.715 126.767 191.267 127.151 190.712C127.535 190.157 127.812 189.539 127.983 188.856C128.175 188.152 128.271 187.437 128.271 186.712C128.271 186.008 128.175 185.304 127.983 184.6C127.812 183.896 127.535 183.277 127.151 182.744C126.767 182.189 126.276 181.741 125.679 181.4C125.081 181.059 124.377 180.888 123.567 180.888C122.756 180.888 122.052 181.059 121.455 181.4C120.857 181.741 120.367 182.189 119.983 182.744C119.599 183.277 119.311 183.896 119.119 184.6C118.948 185.304 118.863 186.008 118.863 186.712C118.863 187.437 118.948 188.152 119.119 188.856C119.311 189.539 119.599 190.157 119.983 190.712C120.367 191.267 120.857 191.715 121.455 192.056C122.052 192.397 122.756 192.568 123.567 192.568ZM135.047 172.152H138.695V180.6H138.759C139.015 180.195 139.325 179.832 139.687 179.512C140.05 179.192 140.445 178.925 140.871 178.712C141.319 178.477 141.778 178.307 142.247 178.2C142.738 178.072 143.218 178.008 143.687 178.008C144.989 178.008 146.119 178.243 147.079 178.712C148.061 179.16 148.871 179.789 149.511 180.6C150.151 181.389 150.631 182.317 150.951 183.384C151.271 184.451 151.431 185.592 151.431 186.808C151.431 187.917 151.282 188.995 150.983 190.04C150.706 191.085 150.269 192.013 149.671 192.824C149.095 193.613 148.359 194.253 147.463 194.744C146.567 195.213 145.511 195.448 144.295 195.448C143.741 195.448 143.175 195.405 142.599 195.32C142.045 195.256 141.511 195.117 140.999 194.904C140.487 194.691 140.018 194.413 139.591 194.072C139.186 193.731 138.845 193.283 138.567 192.728H138.503V195H135.047V172.152ZM147.783 186.744C147.783 185.997 147.687 185.272 147.495 184.568C147.303 183.864 147.015 183.245 146.631 182.712C146.247 182.157 145.767 181.72 145.191 181.4C144.615 181.059 143.954 180.888 143.207 180.888C141.671 180.888 140.509 181.421 139.719 182.488C138.951 183.555 138.567 184.973 138.567 186.744C138.567 187.576 138.663 188.355 138.855 189.08C139.069 189.784 139.378 190.392 139.783 190.904C140.189 191.416 140.669 191.821 141.223 192.12C141.799 192.419 142.461 192.568 143.207 192.568C144.039 192.568 144.743 192.397 145.319 192.056C145.895 191.715 146.365 191.277 146.727 190.744C147.111 190.189 147.378 189.571 147.527 188.888C147.698 188.184 147.783 187.469 147.783 186.744ZM154.61 172.152H158.258V175.608H154.61V172.152ZM154.61 178.456H158.258V195H154.61V178.456ZM162.329 172.152H165.977V195H162.329V172.152ZM170.047 172.152H173.695V175.608H170.047V172.152ZM170.047 178.456H173.695V195H170.047V178.456ZM176.006 178.456H178.758V173.496H182.406V178.456H185.702V181.176H182.406V190.008C182.406 190.392 182.417 190.723 182.438 191C182.481 191.277 182.555 191.512 182.662 191.704C182.79 191.896 182.971 192.045 183.206 192.152C183.441 192.237 183.761 192.28 184.166 192.28C184.422 192.28 184.678 192.28 184.934 192.28C185.19 192.259 185.446 192.216 185.702 192.152V194.968C185.297 195.011 184.902 195.053 184.518 195.096C184.134 195.139 183.739 195.16 183.334 195.16C182.374 195.16 181.595 195.075 180.998 194.904C180.422 194.712 179.963 194.445 179.622 194.104C179.302 193.741 179.078 193.293 178.95 192.76C178.843 192.227 178.779 191.619 178.758 190.936V181.176H176.006V178.456ZM186.502 178.456H190.502L194.822 190.808H194.886L199.078 178.456H202.886L196.454 195.896C196.156 196.643 195.857 197.357 195.558 198.04C195.281 198.723 194.929 199.32 194.502 199.832C194.097 200.365 193.585 200.781 192.966 201.08C192.348 201.4 191.558 201.56 190.598 201.56C189.745 201.56 188.902 201.496 188.07 201.368V198.296C188.369 198.339 188.657 198.381 188.934 198.424C189.212 198.488 189.5 198.52 189.798 198.52C190.225 198.52 190.577 198.467 190.854 198.36C191.132 198.253 191.356 198.093 191.526 197.88C191.718 197.688 191.878 197.453 192.006 197.176C192.134 196.899 192.252 196.579 192.358 196.216L192.774 194.936L186.502 178.456Z" fill="#F9B405"/>
    <path fill-rule="evenodd" clip-rule="evenodd" d="M111.881 114H91.9228C88.3528 114 85.4612 116.864 85.4612 120.4V142.8C85.4612 144.568 86.907 146 88.692 146H95.1535C96.0097 146 96.8335 145.664 97.4393 145.064C98.045 144.464 98.3843 143.648 98.3843 142.8V126.8H111.881L113.912 120.4L111.881 114ZM114.712 112.248C114.288 110.912 114.66 109.44 115.661 108.496C116.659 107.56 118.092 107.332 119.312 107.924C124.982 110.668 132.885 114.5 138.43 117.192C139.621 117.768 140.384 119.02 140.384 120.4C140.384 121.78 139.621 123.032 138.43 123.608C132.881 126.3 124.982 130.128 119.312 132.876C118.092 133.468 116.659 133.24 115.661 132.304C114.66 131.364 114.288 129.892 114.712 128.552C115.996 124.512 117.301 120.4 117.301 120.4C117.301 120.4 115.996 116.292 114.712 112.248ZM139.194 114L139.852 114.316C142.121 115.416 143.616 117.776 143.616 120.4C143.616 123.024 142.121 125.384 139.852 126.484L139.194 126.8H156.538C160.108 126.8 163 123.936 163 120.4V69.2C163 65.664 160.108 62.8 156.538 62.8H127.462C125.676 62.8 124.231 64.2319 124.231 66V72.4C124.231 74.168 125.676 75.6 127.462 75.6H150.077V114L139.194 114ZM98.3846 50C87.6864 50 79 58.604 79 69.2C79 75.084 81.8673 80.4241 85.4373 84.6645C90.4532 90.6244 96.7249 94.3444 96.7249 94.3444C97.7466 94.9564 99.0268 94.9564 100.044 94.3444C100.044 94.3444 106.32 90.6244 111.332 84.6645C114.898 80.4285 117.769 75.0884 117.769 69.2C117.769 58.6036 109.083 50 98.3846 50ZM98.3846 59.6C93.0336 59.6 88.6923 63.9 88.6923 69.2C88.6923 74.5 93.0336 78.8 98.3846 78.8C103.736 78.8 108.077 74.5 108.077 69.2C108.077 63.9 103.736 59.6 98.3846 59.6Z" fill="#F9A405" fill-opacity="0.92"/>
    <path d="M74.6453 54.12L76.4393 52.248C78.0877 50.528 79 48.232 79 45.8C79 45.36 78.655 45 78.2333 45C75.9026 45 73.7023 45.952 72.0539 47.672L69.0325 50.6L69.8076 49.3864L62.4544 46.824C62.2627 46.76 62.0481 46.776 61.8717 46.872L57.4633 49.168C57.2027 49.304 57.0417 49.576 57.0417 49.88C57.0417 50.184 57.2027 50.464 57.4633 50.6L65.3218 54.696L62.4774 57.664L56.6967 58.216C56.3977 58.24 56.1447 58.448 56.045 58.736C55.9453 59.032 56.0143 59.36 56.2213 59.576L58.4294 61.872C58.506 61.96 58.6134 62.024 58.7284 62.064L61.6647 63.088L62.6461 66.152C62.6844 66.272 62.7457 66.384 62.8301 66.472L65.0304 68.768C65.1761 68.92 65.3754 69 65.5748 69C65.6591 69 65.7511 68.984 65.8354 68.952C66.1114 68.848 66.3108 68.584 66.3338 68.272L66.8628 62.24L69.4495 59.5408L69.0325 57.8L73.6325 67.472C73.7628 67.744 74.0312 67.912 74.3225 67.912C74.6139 67.912 74.8745 67.744 75.0049 67.472L77.2052 62.872C77.2972 62.688 77.3125 62.464 77.2512 62.264L74.6453 54.12Z" fill="#F90509"/>
    <path d="M162.248 46.0387L159.806 41.26C159.411 40.4871 158.616 40 157.747 40L128.917 40.0016C128.089 40.0016 127.418 40.6722 127.418 41.5004V55.0895C127.418 55.9177 128.089 56.5883 128.917 56.5883H132.343C132.4 54.2468 134.318 52.3583 136.672 52.3583C139.027 52.3583 140.946 54.2467 141.001 56.5883H149.166C149.223 54.2468 151.14 52.3583 153.495 52.3583C155.849 52.3583 157.768 54.2467 157.824 56.5883H159.892C161.469 56.5883 162.749 55.3104 162.749 53.7321L162.752 48.1286C162.752 47.4028 162.579 46.6866 162.248 46.0387ZM134.42 48.2016C134.42 48.3705 134.282 48.5085 134.113 48.5085H129.284C129.115 48.5085 128.977 48.3705 128.977 48.2016V42.4161C128.977 42.2472 129.115 42.1092 129.284 42.1092H134.113C134.282 42.1092 134.42 42.2472 134.42 42.4161V48.2016ZM140.542 48.2016C140.542 48.3705 140.404 48.5085 140.235 48.5085H135.406C135.237 48.5085 135.099 48.3705 135.099 48.2016V42.4161C135.099 42.2472 135.237 42.1092 135.406 42.1092H140.235C140.404 42.1092 140.542 42.2472 140.542 42.4161V48.2016ZM146.664 48.2016C146.664 48.3705 146.526 48.5085 146.357 48.5085H141.528C141.359 48.5085 141.221 48.3705 141.221 48.2016V42.4161C141.221 42.2472 141.359 42.1092 141.528 42.1092H146.357C146.526 42.1092 146.664 42.2472 146.664 42.4161V48.2016ZM152.785 48.2016C152.785 48.3705 152.647 48.5085 152.479 48.5085H147.65C147.481 48.5085 147.343 48.3705 147.343 48.2016V42.4161C147.343 42.2472 147.481 42.1092 147.65 42.1092H152.479C152.647 42.1092 152.785 42.2472 152.785 42.4161V48.2016ZM160.464 48.5085H153.747C153.578 48.5085 153.44 48.3705 153.44 48.2016L153.442 42.4161C153.442 42.2472 153.58 42.1092 153.749 42.1092H157.689C157.881 42.1092 158.056 42.2164 158.144 42.3885L160.468 46.9353C160.669 47.3282 160.773 47.7634 160.773 48.2034C160.771 48.3723 160.635 48.5085 160.464 48.5085Z" fill="#F9D405"/>
    <path d="M153.496 53.3698C151.7 53.3698 150.235 54.8035 150.18 56.5865C150.179 56.6222 150.175 56.6563 150.175 56.6904C150.175 58.522 151.666 60.0126 153.498 60.0126C155.329 60.0126 156.82 58.522 156.82 56.6904C156.82 56.6547 156.815 56.6206 156.815 56.5865C156.758 54.8035 155.294 53.3698 153.496 53.3698ZM153.498 58.2133C152.657 58.2133 151.976 57.5314 151.976 56.6918C151.976 56.6561 151.984 56.622 151.986 56.5879C152.041 55.7972 152.692 55.1703 153.498 55.1703C154.303 55.1703 154.954 55.7971 155.009 56.5879C155.011 56.6236 155.019 56.6561 155.019 56.6918C155.019 57.5313 154.337 58.2133 153.498 58.2133Z" fill="#F9D405"/>
    <path d="M136.672 53.3698C134.876 53.3698 133.412 54.8035 133.357 56.5865C133.355 56.6222 133.352 56.6563 133.352 56.6904C133.352 58.522 134.842 60.0126 136.674 60.0126C138.506 60.0126 139.996 58.522 139.996 56.6904C139.996 56.6547 139.991 56.6206 139.991 56.5865C139.934 54.8035 138.47 53.3698 136.672 53.3698ZM136.672 58.2133C135.831 58.2133 135.151 57.5314 135.151 56.6918C135.151 56.6561 135.159 56.622 135.161 56.5879C135.216 55.7972 135.867 55.1703 136.672 55.1703C137.478 55.1703 138.129 55.7971 138.184 56.5879C138.186 56.6236 138.194 56.6561 138.194 56.6918C138.194 57.5313 137.513 58.2133 136.672 58.2133Z" fill="#F9D405"/>
    <path d="M180.01 87.8102C180.01 87.8709 180.008 87.9301 180.006 87.9894L187.171 89.3779C187.651 89.471 188 89.9099 188 90.4221V93.9314C188 94.5184 187.546 94.9939 186.987 94.9939C186.427 94.9939 185.973 94.5184 185.973 93.9314V91.3068L184.006 90.9258V104.514H184.476V101.397C184.476 100.81 184.929 100.335 185.489 100.335C186.049 100.335 186.502 100.81 186.502 101.397V107.144C186.502 107.731 186.049 108.207 185.489 108.207C184.929 108.207 184.476 107.731 184.476 107.144V106.639H183.123L179.978 107.506C180 107.73 180.011 107.959 180.011 108.19C180.011 111.945 177.092 115 173.505 115C169.918 115 167 111.945 167 108.19C167 104.914 169.223 102.17 172.173 101.524L171.994 97.7934C171.993 97.7765 171.993 97.761 171.993 97.744V97.7412C171.993 97.696 171.997 97.6509 172.002 97.6072C172.004 97.5916 172.008 97.5775 172.009 97.562C172.013 97.5324 172.02 97.5041 172.026 97.4745C172.03 97.459 172.034 97.4421 172.04 97.4265C172.048 97.3983 172.057 97.3715 172.067 97.3447C172.072 97.3306 172.078 97.3151 172.084 97.301C172.096 97.2727 172.11 97.2459 172.125 97.2177C172.131 97.2064 172.137 97.1937 172.143 97.1824C172.161 97.1528 172.181 97.1232 172.201 97.0949C172.207 97.0879 172.212 97.0794 172.217 97.0724C172.244 97.0371 172.274 97.0032 172.306 96.9708C172.306 96.9708 172.308 96.9708 172.308 96.9694C172.336 96.9411 172.367 96.9129 172.399 96.8875L175.898 94.1402C175.156 94.4478 174.35 94.6199 173.505 94.6199C169.918 94.6199 167 91.565 167 87.81C167 84.0549 169.919 81 173.505 81C177.093 81 180.01 84.0552 180.01 87.8102ZM174.696 97.7383L181.978 103.453V92.0218L174.696 97.7365V97.7383ZM169.025 108.189C169.025 110.772 171.034 112.874 173.504 112.874C175.973 112.874 177.982 110.773 177.982 108.189C177.982 108.144 177.98 108.1 177.98 108.055L173.761 109.216C173.466 109.298 173.151 109.234 172.905 109.045C172.659 108.856 172.507 108.561 172.492 108.241L172.274 103.683C170.401 104.243 169.024 106.05 169.024 108.187L169.025 108.189ZM177.463 106C176.829 104.751 175.672 103.837 174.299 103.579L174.454 106.828L177.463 106ZM174.195 101.417C176.553 101.679 178.538 103.265 179.458 105.45L180.703 105.107L174.125 99.9437L174.195 101.417ZM180.788 90.3017L179.638 90.0788C179.401 90.7773 179.059 91.4221 178.631 91.995L180.788 90.3017ZM169.025 87.8098C169.025 90.3935 171.034 92.4946 173.504 92.4946C175.337 92.4946 176.914 91.3376 177.607 89.6852L173.319 88.8541C172.831 88.7596 172.49 88.3123 172.49 87.8099C172.49 87.7464 172.496 87.6815 172.508 87.6152C172.609 87.0381 173.138 86.6571 173.688 86.7629L177.978 87.594C177.871 85.1091 175.906 83.1223 173.504 83.1223C171.034 83.1223 169.025 85.2234 169.025 87.8072L169.025 87.8098Z" fill="#0557F9"/>
    <path fill-rule="evenodd" clip-rule="evenodd" d="M73.9406 115.177C72.2625 115.177 70.8976 116.542 70.8976 118.22C70.8976 119.908 72.2629 121.263 73.9406 121.263C75.6289 121.263 76.9974 119.908 76.9974 118.22C76.9974 116.542 75.6289 115.177 73.9406 115.177ZM72.1783 122.16C69.5807 122.16 66.6837 123.983 65.3909 126.062C64.4902 127.559 64.4071 129.254 64.4142 131.586C64.406 132.252 64.9455 132.796 65.6119 132.794C66.2785 132.792 66.8144 132.245 66.8028 131.578C66.7957 129.324 66.9269 128.142 67.4376 127.293C67.828 126.644 68.5519 126.015 69.9113 125.219C69.487 127.185 69.0963 129.155 68.6992 131.114C70.5899 135.605 72.4807 140.097 74.3714 144.588C74.7281 145.471 75.7382 145.891 76.6155 145.522C77.4931 145.152 77.8986 144.136 77.5165 143.264L72.9537 132.425L73.5348 130L73.9604 128.224C75.1801 130.439 78.0118 131.038 79.95 131.499C80.5964 131.661 81.2502 131.262 81.403 130.614C81.5556 129.965 81.1481 129.317 80.4974 129.173C78.3032 128.657 77.1837 128.255 76.4762 127.561C76.1064 127.198 75.7466 126.693 75.4669 125.915C75.1873 125.137 75.0564 124.277 74.8075 123.509L74.8051 123.501C74.2841 122.156 73.3446 122.165 72.1783 122.16ZM68.3272 132.894L67.1704 138.629L64.5245 143.052C64.0241 143.862 64.2833 144.925 65.1002 145.414C65.9171 145.902 66.976 145.628 67.453 144.804L70.332 139.991C70.4849 139.736 70.5682 139.445 70.5738 139.147L70.5801 138.246C69.8291 136.462 69.0781 134.678 68.3272 132.894Z" fill="#36F905"/>
    <rect x="40" y="4" width="63.1562" height="30" rx="3" fill="#444444"/>
    <rect x="40.5" y="4.5" width="62.1562" height="29" rx="2.5" stroke="white" stroke-opacity="0.0980392"/>
    <path d="M46.9688 22V14H47.9375V21.1406H51.6563V22H46.9688ZM55.4688 22.125C54.9271 22.125 54.4518 21.9961 54.043 21.7383C53.6367 21.4805 53.319 21.1198 53.0898 20.6562C52.8633 20.1927 52.75 19.651 52.75 19.0312C52.75 18.4062 52.8633 17.8607 53.0898 17.3945C53.319 16.9284 53.6367 16.5664 54.043 16.3086C54.4518 16.0508 54.9271 15.9219 55.4688 15.9219C56.0104 15.9219 56.4844 16.0508 56.8906 16.3086C57.2995 16.5664 57.6172 16.9284 57.8438 17.3945C58.0729 17.8607 58.1875 18.4062 58.1875 19.0312C58.1875 19.651 58.0729 20.1927 57.8438 20.6562C57.6172 21.1198 57.2995 21.4805 56.8906 21.7383C56.4844 21.9961 56.0104 22.125 55.4688 22.125ZM55.4688 21.2969C55.8802 21.2969 56.2187 21.1914 56.4844 20.9805C56.75 20.7695 56.9466 20.4922 57.0742 20.1484C57.2018 19.8047 57.2656 19.4323 57.2656 19.0312C57.2656 18.6302 57.2018 18.2565 57.0742 17.9102C56.9466 17.5638 56.75 17.2839 56.4844 17.0703C56.2187 16.8568 55.8802 16.75 55.4688 16.75C55.0573 16.75 54.7188 16.8568 54.4531 17.0703C54.1875 17.2839 53.9909 17.5638 53.8633 17.9102C53.7357 18.2565 53.6719 18.6302 53.6719 19.0312C53.6719 19.4323 53.7357 19.8047 53.8633 20.1484C53.9909 20.4922 54.1875 20.7695 54.4531 20.9805C54.7188 21.1914 55.0573 21.2969 55.4688 21.2969ZM62.0166 24.375C61.5713 24.375 61.1885 24.3177 60.8682 24.2031C60.5479 24.0911 60.2809 23.9427 60.0674 23.7578C59.8564 23.5755 59.6885 23.3802 59.5635 23.1719L60.2979 22.6563C60.3812 22.7656 60.4867 22.8906 60.6143 23.0312C60.7419 23.1745 60.9163 23.2982 61.1377 23.4023C61.3617 23.5091 61.6546 23.5625 62.0166 23.5625C62.501 23.5625 62.9007 23.4453 63.2158 23.2109C63.5309 22.9766 63.6885 22.6094 63.6885 22.1094V20.8906H63.6104C63.5426 21 63.4463 21.1354 63.3213 21.2969C63.1989 21.4557 63.0218 21.5977 62.79 21.7227C62.5609 21.8451 62.251 21.9062 61.8604 21.9062C61.376 21.9062 60.9411 21.7917 60.5557 21.5625C60.1729 21.3333 59.8695 21 59.6455 20.5625C59.4242 20.125 59.3135 19.5937 59.3135 18.9687C59.3135 18.3542 59.4215 17.819 59.6377 17.3633C59.8538 16.9049 60.1546 16.5508 60.54 16.3008C60.9255 16.0482 61.3708 15.9219 61.876 15.9219C62.2666 15.9219 62.5765 15.987 62.8057 16.1172C63.0374 16.2448 63.2145 16.3906 63.3369 16.5547C63.4619 16.7161 63.5583 16.849 63.626 16.9531H63.7197V16H64.6104V22.1719C64.6104 22.6875 64.4932 23.1068 64.2588 23.4297C64.027 23.7552 63.7145 23.9935 63.3213 24.1445C62.9307 24.2982 62.4958 24.375 62.0166 24.375ZM61.9854 21.0781C62.3551 21.0781 62.6676 20.9935 62.9229 20.8242C63.1781 20.6549 63.3721 20.4115 63.5049 20.0938C63.6377 19.776 63.7041 19.3958 63.7041 18.9531C63.7041 18.5208 63.639 18.1393 63.5088 17.8086C63.3786 17.4779 63.1859 17.2187 62.9307 17.0312C62.6755 16.8437 62.3604 16.75 61.9854 16.75C61.5947 16.75 61.2692 16.849 61.0088 17.0469C60.751 17.2448 60.557 17.5104 60.4268 17.8438C60.2992 18.1771 60.2354 18.5469 60.2354 18.9531C60.2354 19.3698 60.3005 19.7383 60.4307 20.0586C60.5635 20.3763 60.7588 20.6263 61.0166 20.8086C61.277 20.9883 61.5999 21.0781 61.9854 21.0781ZM68.7354 22.125C68.1937 22.125 67.7184 21.9961 67.3096 21.7383C66.9033 21.4805 66.5856 21.1198 66.3564 20.6562C66.1299 20.1927 66.0166 19.651 66.0166 19.0312C66.0166 18.4062 66.1299 17.8607 66.3564 17.3945C66.5856 16.9284 66.9033 16.5664 67.3096 16.3086C67.7184 16.0508 68.1937 15.9219 68.7354 15.9219C69.277 15.9219 69.751 16.0508 70.1572 16.3086C70.5661 16.5664 70.8838 16.9284 71.1104 17.3945C71.3395 17.8607 71.4541 18.4062 71.4541 19.0312C71.4541 19.651 71.3395 20.1927 71.1104 20.6562C70.8838 21.1198 70.5661 21.4805 70.1572 21.7383C69.751 21.9961 69.277 22.125 68.7354 22.125ZM68.7354 21.2969C69.1468 21.2969 69.4854 21.1914 69.751 20.9805C70.0166 20.7695 70.2132 20.4922 70.3408 20.1484C70.4684 19.8047 70.5322 19.4323 70.5322 19.0312C70.5322 18.6302 70.4684 18.2565 70.3408 17.9102C70.2132 17.5638 70.0166 17.2839 69.751 17.0703C69.4854 16.8568 69.1468 16.75 68.7354 16.75C68.3239 16.75 67.9854 16.8568 67.7197 17.0703C67.4541 17.2839 67.2575 17.5638 67.1299 17.9102C67.0023 18.2565 66.9385 18.6302 66.9385 19.0312C66.9385 19.4323 67.0023 19.8047 67.1299 20.1484C67.2575 20.4922 67.4541 20.7695 67.7197 20.9805C67.9854 21.1914 68.3239 21.2969 68.7354 21.2969ZM77.0488 14V22H76.0801V14H77.0488ZM81.3037 22.125C80.7412 22.125 80.2568 21.9922 79.8506 21.7266C79.4443 21.4609 79.1318 21.0951 78.9131 20.6289C78.6943 20.1628 78.585 19.6302 78.585 19.0312C78.585 18.4219 78.6969 17.8841 78.9209 17.418C79.1475 16.9492 79.4626 16.5833 79.8662 16.3203C80.2725 16.0547 80.7464 15.9219 81.2881 15.9219C81.71 15.9219 82.0902 16 82.4287 16.1562C82.7673 16.3125 83.0446 16.5312 83.2607 16.8125C83.4769 17.0937 83.611 17.4219 83.6631 17.7969H82.7412C82.6709 17.5234 82.5146 17.2812 82.2725 17.0703C82.0329 16.8568 81.71 16.75 81.3037 16.75C80.9443 16.75 80.6292 16.8437 80.3584 17.0312C80.0902 17.2161 79.8805 17.4779 79.7295 17.8164C79.5811 18.1523 79.5068 18.5469 79.5068 19C79.5068 19.4635 79.5798 19.8672 79.7256 20.2109C79.874 20.5547 80.0824 20.8216 80.3506 21.0117C80.6214 21.2018 80.9391 21.2969 81.3037 21.2969C81.5433 21.2969 81.7607 21.2552 81.9561 21.1719C82.1514 21.0885 82.3167 20.9688 82.4521 20.8125C82.5876 20.6562 82.6839 20.4687 82.7412 20.25H83.6631C83.611 20.6042 83.4821 20.9232 83.2764 21.207C83.0732 21.4883 82.8037 21.7122 82.4678 21.8789C82.1344 22.043 81.7464 22.125 81.3037 22.125ZM87.4482 22.125C86.9066 22.125 86.4313 21.9961 86.0225 21.7383C85.6162 21.4805 85.2985 21.1198 85.0693 20.6562C84.8428 20.1927 84.7295 19.651 84.7295 19.0312C84.7295 18.4062 84.8428 17.8607 85.0693 17.3945C85.2985 16.9284 85.6162 16.5664 86.0225 16.3086C86.4313 16.0508 86.9066 15.9219 87.4482 15.9219C87.9899 15.9219 88.4639 16.0508 88.8701 16.3086C89.279 16.5664 89.5967 16.9284 89.8232 17.3945C90.0524 17.8607 90.167 18.4062 90.167 19.0312C90.167 19.651 90.0524 20.1927 89.8232 20.6562C89.5967 21.1198 89.279 21.4805 88.8701 21.7383C88.4639 21.9961 87.9899 22.125 87.4482 22.125ZM87.4482 21.2969C87.8597 21.2969 88.1982 21.1914 88.4639 20.9805C88.7295 20.7695 88.9261 20.4922 89.0537 20.1484C89.1813 19.8047 89.2451 19.4323 89.2451 19.0312C89.2451 18.6302 89.1813 18.2565 89.0537 17.9102C88.9261 17.5638 88.7295 17.2839 88.4639 17.0703C88.1982 16.8568 87.8597 16.75 87.4482 16.75C87.0368 16.75 86.6982 16.8568 86.4326 17.0703C86.167 17.2839 85.9704 17.5638 85.8428 17.9102C85.7152 18.2565 85.6514 18.6302 85.6514 19.0312C85.6514 19.4323 85.7152 19.8047 85.8428 20.1484C85.9704 20.4922 86.167 20.7695 86.4326 20.9805C86.6982 21.1914 87.0368 21.2969 87.4482 21.2969ZM92.4961 18.3906V22H91.5742V16H92.4648V16.9375H92.543C92.6836 16.6328 92.8971 16.388 93.1836 16.2031C93.4701 16.0156 93.8398 15.9219 94.293 15.9219C94.6992 15.9219 95.0547 16.0052 95.3594 16.1719C95.6641 16.3359 95.901 16.5859 96.0703 16.9219C96.2396 17.2552 96.3242 17.6771 96.3242 18.1875V22H95.4023V18.25C95.4023 17.7786 95.2799 17.4115 95.0352 17.1484C94.7904 16.8828 94.4544 16.75 94.0273 16.75C93.7331 16.75 93.4701 16.8138 93.2383 16.9414C93.0091 17.069 92.8281 17.2552 92.6953 17.5C92.5625 17.7448 92.4961 18.0417 92.4961 18.3906Z" fill="white"/>
</svg>
